<mxfile host="app.diagrams.net" modified="2022-07-05T14:23:15.173Z" agent="5.0 (Macintosh; Intel Mac OS X 10_15_7) AppleWebKit/537.36 (KHTML, like Gecko) Chrome/102.0.0.0 Safari/537.36" etag="zfG33viQAqNd9A4BIPOe" version="17.2.4" type="github">
  <diagram id="HE-YRMCcZ0tg9zL4TOY7" name="Page-1">
    <mxGraphModel dx="1426" dy="825" grid="1" gridSize="10" guides="1" tooltips="1" connect="1" arrows="1" fold="1" page="1" pageScale="1" pageWidth="850" pageHeight="1100" math="0" shadow="0">
      <root>
        <mxCell id="0" />
        <mxCell id="1" parent="0" />
        <mxCell id="VGNRs2Qtlnszh9C-CRlp-1" value="START" style="rounded=1;whiteSpace=wrap;html=1;" parent="1" vertex="1">
          <mxGeometry x="200" y="40" width="160" height="40" as="geometry" />
        </mxCell>
        <mxCell id="VGNRs2Qtlnszh9C-CRlp-2" value="" style="endArrow=classic;html=1;rounded=0;entryX=0.497;entryY=0;entryDx=0;entryDy=0;entryPerimeter=0;" parent="1" edge="1" target="RSufuxC7KS5K-naFZg6j-1">
          <mxGeometry width="50" height="50" relative="1" as="geometry">
            <mxPoint x="280" y="80" as="sourcePoint" />
            <mxPoint x="280" y="160" as="targetPoint" />
          </mxGeometry>
        </mxCell>
        <mxCell id="RSufuxC7KS5K-naFZg6j-1" value="Height &amp;gt; 5ft ?" style="rhombus;whiteSpace=wrap;html=1;" vertex="1" parent="1">
          <mxGeometry x="200.5" y="110" width="160" height="80" as="geometry" />
        </mxCell>
        <mxCell id="RSufuxC7KS5K-naFZg6j-2" value="" style="endArrow=classic;html=1;rounded=0;" edge="1" parent="1" source="RSufuxC7KS5K-naFZg6j-1">
          <mxGeometry width="50" height="50" relative="1" as="geometry">
            <mxPoint x="290.5" y="40" as="sourcePoint" />
            <mxPoint x="120.5" y="190" as="targetPoint" />
            <Array as="points">
              <mxPoint x="120.5" y="150" />
            </Array>
          </mxGeometry>
        </mxCell>
        <mxCell id="RSufuxC7KS5K-naFZg6j-3" value="" style="endArrow=classic;html=1;rounded=0;exitX=1;exitY=0.5;exitDx=0;exitDy=0;" edge="1" parent="1" source="RSufuxC7KS5K-naFZg6j-1">
          <mxGeometry width="50" height="50" relative="1" as="geometry">
            <mxPoint x="210.5" y="160" as="sourcePoint" />
            <mxPoint x="440.5" y="190" as="targetPoint" />
            <Array as="points">
              <mxPoint x="440.5" y="150" />
            </Array>
          </mxGeometry>
        </mxCell>
        <mxCell id="RSufuxC7KS5K-naFZg6j-4" value="No" style="text;html=1;strokeColor=none;fillColor=none;align=center;verticalAlign=middle;whiteSpace=wrap;rounded=0;" vertex="1" parent="1">
          <mxGeometry x="140.5" y="125" width="60" height="30" as="geometry" />
        </mxCell>
        <mxCell id="RSufuxC7KS5K-naFZg6j-5" value="Yes" style="text;html=1;strokeColor=none;fillColor=none;align=center;verticalAlign=middle;whiteSpace=wrap;rounded=0;" vertex="1" parent="1">
          <mxGeometry x="367.5" y="125" width="60" height="30" as="geometry" />
        </mxCell>
        <mxCell id="RSufuxC7KS5K-naFZg6j-6" value="Can&#39;t Ride" style="rounded=1;whiteSpace=wrap;html=1;" vertex="1" parent="1">
          <mxGeometry x="69.5" y="190" width="100" height="40" as="geometry" />
        </mxCell>
        <mxCell id="RSufuxC7KS5K-naFZg6j-7" value="Can Ride" style="rounded=1;whiteSpace=wrap;html=1;" vertex="1" parent="1">
          <mxGeometry x="390.5" y="190" width="100" height="40" as="geometry" />
        </mxCell>
        <mxCell id="RSufuxC7KS5K-naFZg6j-8" value="" style="endArrow=classic;html=1;rounded=0;exitX=0.5;exitY=1;exitDx=0;exitDy=0;" edge="1" parent="1" source="RSufuxC7KS5K-naFZg6j-7">
          <mxGeometry width="50" height="50" relative="1" as="geometry">
            <mxPoint x="440" y="230" as="sourcePoint" />
            <mxPoint x="440" y="280" as="targetPoint" />
          </mxGeometry>
        </mxCell>
        <mxCell id="RSufuxC7KS5K-naFZg6j-9" value="Age" style="rhombus;whiteSpace=wrap;html=1;" vertex="1" parent="1">
          <mxGeometry x="400.5" y="280" width="80" height="60" as="geometry" />
        </mxCell>
        <mxCell id="RSufuxC7KS5K-naFZg6j-10" value="" style="endArrow=classic;html=1;rounded=0;entryX=0.5;entryY=0;entryDx=0;entryDy=0;" edge="1" parent="1" target="RSufuxC7KS5K-naFZg6j-12">
          <mxGeometry width="50" height="50" relative="1" as="geometry">
            <mxPoint x="400.5" y="310" as="sourcePoint" />
            <mxPoint x="320.5" y="350" as="targetPoint" />
            <Array as="points">
              <mxPoint x="320.5" y="310" />
            </Array>
          </mxGeometry>
        </mxCell>
        <mxCell id="RSufuxC7KS5K-naFZg6j-11" value="" style="endArrow=classic;html=1;rounded=0;exitX=1;exitY=0.5;exitDx=0;exitDy=0;entryX=0.5;entryY=0;entryDx=0;entryDy=0;" edge="1" parent="1" source="RSufuxC7KS5K-naFZg6j-9" target="RSufuxC7KS5K-naFZg6j-14">
          <mxGeometry width="50" height="50" relative="1" as="geometry">
            <mxPoint x="480.5" y="310" as="sourcePoint" />
            <mxPoint x="560.5" y="350" as="targetPoint" />
            <Array as="points">
              <mxPoint x="560.5" y="310" />
            </Array>
          </mxGeometry>
        </mxCell>
        <mxCell id="RSufuxC7KS5K-naFZg6j-12" value="$5" style="rounded=1;whiteSpace=wrap;html=1;" vertex="1" parent="1">
          <mxGeometry x="285" y="361" width="70" height="40" as="geometry" />
        </mxCell>
        <mxCell id="RSufuxC7KS5K-naFZg6j-13" value="$7" style="rounded=1;whiteSpace=wrap;html=1;" vertex="1" parent="1">
          <mxGeometry x="405.5" y="361" width="70" height="40" as="geometry" />
        </mxCell>
        <mxCell id="RSufuxC7KS5K-naFZg6j-14" value="$12" style="rounded=1;whiteSpace=wrap;html=1;" vertex="1" parent="1">
          <mxGeometry x="526" y="361" width="70" height="40" as="geometry" />
        </mxCell>
        <mxCell id="RSufuxC7KS5K-naFZg6j-15" value="" style="endArrow=classic;html=1;rounded=0;entryX=0.5;entryY=0;entryDx=0;entryDy=0;exitX=0.5;exitY=1;exitDx=0;exitDy=0;" edge="1" parent="1" source="RSufuxC7KS5K-naFZg6j-9" target="RSufuxC7KS5K-naFZg6j-13">
          <mxGeometry width="50" height="50" relative="1" as="geometry">
            <mxPoint x="410" y="350" as="sourcePoint" />
            <mxPoint x="290.02" y="120" as="targetPoint" />
          </mxGeometry>
        </mxCell>
        <mxCell id="RSufuxC7KS5K-naFZg6j-16" value="Under 12" style="text;html=1;strokeColor=none;fillColor=none;align=center;verticalAlign=middle;whiteSpace=wrap;rounded=0;" vertex="1" parent="1">
          <mxGeometry x="320" y="283" width="60" height="30" as="geometry" />
        </mxCell>
        <mxCell id="RSufuxC7KS5K-naFZg6j-17" value="Over 18" style="text;html=1;strokeColor=none;fillColor=none;align=center;verticalAlign=middle;whiteSpace=wrap;rounded=0;" vertex="1" parent="1">
          <mxGeometry x="490.5" y="282" width="60" height="30" as="geometry" />
        </mxCell>
        <mxCell id="RSufuxC7KS5K-naFZg6j-18" value="12-18" style="text;html=1;strokeColor=none;fillColor=none;align=center;verticalAlign=middle;whiteSpace=wrap;rounded=0;" vertex="1" parent="1">
          <mxGeometry x="444" y="332" width="42" height="30" as="geometry" />
        </mxCell>
        <mxCell id="RSufuxC7KS5K-naFZg6j-19" value="" style="endArrow=classic;html=1;rounded=0;exitX=1;exitY=1;exitDx=0;exitDy=0;" edge="1" parent="1" source="RSufuxC7KS5K-naFZg6j-12" target="RSufuxC7KS5K-naFZg6j-20">
          <mxGeometry width="50" height="50" relative="1" as="geometry">
            <mxPoint x="400" y="380" as="sourcePoint" />
            <mxPoint x="320" y="490" as="targetPoint" />
          </mxGeometry>
        </mxCell>
        <mxCell id="RSufuxC7KS5K-naFZg6j-20" value="Wants&lt;br&gt;Photo?" style="rhombus;whiteSpace=wrap;html=1;" vertex="1" parent="1">
          <mxGeometry x="400" y="440" width="80" height="60" as="geometry" />
        </mxCell>
        <mxCell id="RSufuxC7KS5K-naFZg6j-21" value="" style="endArrow=classic;html=1;rounded=0;exitX=0.5;exitY=1;exitDx=0;exitDy=0;" edge="1" parent="1" source="RSufuxC7KS5K-naFZg6j-13" target="RSufuxC7KS5K-naFZg6j-20">
          <mxGeometry width="50" height="50" relative="1" as="geometry">
            <mxPoint x="330" y="411" as="sourcePoint" />
            <mxPoint x="428.2769953051643" y="467.04225352112667" as="targetPoint" />
          </mxGeometry>
        </mxCell>
        <mxCell id="RSufuxC7KS5K-naFZg6j-22" value="" style="endArrow=classic;html=1;rounded=0;exitX=0;exitY=1;exitDx=0;exitDy=0;entryX=1;entryY=0;entryDx=0;entryDy=0;" edge="1" parent="1" source="RSufuxC7KS5K-naFZg6j-14" target="RSufuxC7KS5K-naFZg6j-20">
          <mxGeometry width="50" height="50" relative="1" as="geometry">
            <mxPoint x="330" y="411" as="sourcePoint" />
            <mxPoint x="427.35849056603774" y="466.9811320754718" as="targetPoint" />
          </mxGeometry>
        </mxCell>
        <mxCell id="RSufuxC7KS5K-naFZg6j-23" value="" style="endArrow=classic;html=1;rounded=0;exitX=0;exitY=0.5;exitDx=0;exitDy=0;entryX=0;entryY=0.5;entryDx=0;entryDy=0;" edge="1" parent="1" source="RSufuxC7KS5K-naFZg6j-20" target="RSufuxC7KS5K-naFZg6j-24">
          <mxGeometry width="50" height="50" relative="1" as="geometry">
            <mxPoint x="400" y="370" as="sourcePoint" />
            <mxPoint x="400" y="590" as="targetPoint" />
            <Array as="points">
              <mxPoint x="360" y="470" />
              <mxPoint x="360" y="540" />
              <mxPoint x="360" y="574" />
            </Array>
          </mxGeometry>
        </mxCell>
        <mxCell id="RSufuxC7KS5K-naFZg6j-24" value="Final Ticket Price" style="rounded=1;whiteSpace=wrap;html=1;" vertex="1" parent="1">
          <mxGeometry x="390.5" y="554" width="120" height="40" as="geometry" />
        </mxCell>
        <mxCell id="RSufuxC7KS5K-naFZg6j-25" value="" style="endArrow=classic;html=1;rounded=0;exitX=1;exitY=0.5;exitDx=0;exitDy=0;" edge="1" parent="1" source="RSufuxC7KS5K-naFZg6j-20" target="RSufuxC7KS5K-naFZg6j-26">
          <mxGeometry width="50" height="50" relative="1" as="geometry">
            <mxPoint x="400" y="370" as="sourcePoint" />
            <mxPoint x="600" y="520" as="targetPoint" />
            <Array as="points">
              <mxPoint x="550" y="470" />
            </Array>
          </mxGeometry>
        </mxCell>
        <mxCell id="RSufuxC7KS5K-naFZg6j-26" value="Add $3" style="rounded=1;whiteSpace=wrap;html=1;" vertex="1" parent="1">
          <mxGeometry x="515.5" y="500" width="70" height="40" as="geometry" />
        </mxCell>
        <mxCell id="RSufuxC7KS5K-naFZg6j-28" value="" style="endArrow=classic;html=1;rounded=0;exitX=0.5;exitY=1;exitDx=0;exitDy=0;entryX=1;entryY=0.5;entryDx=0;entryDy=0;" edge="1" parent="1" source="RSufuxC7KS5K-naFZg6j-26" target="RSufuxC7KS5K-naFZg6j-24">
          <mxGeometry width="50" height="50" relative="1" as="geometry">
            <mxPoint x="400" y="370" as="sourcePoint" />
            <mxPoint x="450" y="320" as="targetPoint" />
            <Array as="points">
              <mxPoint x="550" y="574" />
            </Array>
          </mxGeometry>
        </mxCell>
        <mxCell id="RSufuxC7KS5K-naFZg6j-29" value="No" style="text;html=1;strokeColor=none;fillColor=none;align=center;verticalAlign=middle;whiteSpace=wrap;rounded=0;" vertex="1" parent="1">
          <mxGeometry x="353.5" y="445" width="60" height="30" as="geometry" />
        </mxCell>
        <mxCell id="RSufuxC7KS5K-naFZg6j-30" value="Yes" style="text;html=1;strokeColor=none;fillColor=none;align=center;verticalAlign=middle;whiteSpace=wrap;rounded=0;" vertex="1" parent="1">
          <mxGeometry x="486" y="447" width="60" height="30" as="geometry" />
        </mxCell>
        <mxCell id="RSufuxC7KS5K-naFZg6j-31" value="" style="endArrow=classic;html=1;rounded=0;" edge="1" parent="1">
          <mxGeometry width="50" height="50" relative="1" as="geometry">
            <mxPoint x="560" y="310" as="sourcePoint" />
            <mxPoint x="680" y="360" as="targetPoint" />
            <Array as="points">
              <mxPoint x="680" y="310" />
            </Array>
          </mxGeometry>
        </mxCell>
        <mxCell id="RSufuxC7KS5K-naFZg6j-32" value="$0" style="rounded=1;whiteSpace=wrap;html=1;" vertex="1" parent="1">
          <mxGeometry x="640" y="361" width="70" height="40" as="geometry" />
        </mxCell>
        <mxCell id="RSufuxC7KS5K-naFZg6j-33" value="Age 45-55" style="text;html=1;strokeColor=none;fillColor=none;align=center;verticalAlign=middle;whiteSpace=wrap;rounded=0;" vertex="1" parent="1">
          <mxGeometry x="603" y="283" width="90" height="30" as="geometry" />
        </mxCell>
        <mxCell id="RSufuxC7KS5K-naFZg6j-34" value="" style="endArrow=classic;html=1;rounded=0;exitX=0;exitY=1;exitDx=0;exitDy=0;" edge="1" parent="1" source="RSufuxC7KS5K-naFZg6j-32" target="RSufuxC7KS5K-naFZg6j-20">
          <mxGeometry width="50" height="50" relative="1" as="geometry">
            <mxPoint x="520" y="440" as="sourcePoint" />
            <mxPoint x="570" y="390" as="targetPoint" />
          </mxGeometry>
        </mxCell>
      </root>
    </mxGraphModel>
  </diagram>
</mxfile>
